<?xml version="1.0" encoding="utf-8"?>
<!-- Generator: Adobe Illustrator 16.0.0, SVG Export Plug-In . SVG Version: 6.00 Build 0)  -->
<!DOCTYPE svg PUBLIC "-//W3C//DTD SVG 1.1//EN" "http://www.w3.org/Graphics/SVG/1.1/DTD/svg11.dtd">
<svg version="1.1" id="Layer_1" xmlns="http://www.w3.org/2000/svg" xmlns:xlink="http://www.w3.org/1999/xlink" x="0px" y="0px"
	 width="94.375px" height="94.375px" viewBox="0 0 94.375 94.375" enable-background="new 0 0 94.375 94.375" xml:space="preserve">
<g>
	<defs>
		<rect id="SVGID_1_" width="94.375" height="94.375"/>
	</defs>
	<clipPath id="SVGID_2_">
		<use xlink:href="#SVGID_1_"  overflow="visible"/>
	</clipPath>
	<path clip-path="url(#SVGID_2_)" fill="#034B70" d="M39.481,25.553c13.061,1.521,38.5,4.494,54.894,6.481v-1.358l-51.174-6.307
		v-0.466C40.623,24.559,39.796,25.183,39.481,25.553"/>
	<path clip-path="url(#SVGID_2_)" fill="#034B70" d="M87.587,37.972l-10.475-1.521l-1.589,3.073l-23.633-1.483l11.445,6.994
		l1.06,4.345h22.338C87.028,45.822,87.456,40.492,87.587,37.972"/>
	<path clip-path="url(#SVGID_2_)" fill="#034B70" d="M45.144,65.63c0,0,2.826,1.483,3.038,1.413
		c0.212-0.071,16.744,0.776,17.026,0.564c0.283-0.212-0.282-1.625-0.424-1.978C64.644,65.276,45.426,65.63,45.144,65.63"/>
	<path clip-path="url(#SVGID_2_)" fill="#034B70" d="M87.795,49.38h1.79l-1.344-6.888C88.241,42.492,88.032,47.364,87.795,49.38"/>
	<polygon clip-path="url(#SVGID_2_)" fill="#034B70" points="94.375,38.958 88.562,38.113 90.887,49.38 94.375,49.38 	"/>
	<path clip-path="url(#SVGID_2_)" fill="#034B70" d="M55.671,36.098c0,0-12.717-2.897-13.142-3.038l4.451,3.038H55.671z"/>
	<path clip-path="url(#SVGID_2_)" fill="#034B70" d="M18.19,43.127l1.378-9.22c0,0,0.53-1.908-2.332-1.59l-7.524,0.424
		c0,0-0.212-0.742-3.497,2.438c0,0-5.027,4.708-6.215,6.228v5.447c4.504-0.424,14.481-1.396,14.481-1.396
		S17.766,44.823,18.19,43.127"/>
	<path clip-path="url(#SVGID_2_)" fill="#034B70" d="M92.554,68.773c-0.324,3.975-3.646,7.101-7.704,7.101
		c-2.012,0-3.839-0.774-5.215-2.033c-0.134,0.006-0.267,0.02-0.402,0.02c-3.372,0-6.231-2.161-7.291-5.17
		c-9.121-0.158-27.017-0.499-27.257-0.659c-0.318-0.212-1.802,1.591-1.802,1.591H10.074c-0.887,3.294-3.887,5.723-7.462,5.723
		c-0.918,0-1.795-0.169-2.612-0.462v7.492c0,6.6,5.4,12,12,12h70.375c6.601,0,12-5.4,12-12V68.773H92.554z"/>
	<path clip-path="url(#SVGID_2_)" fill="#034B70" d="M7.274,32.317l3.073-1.484l13.247-1.059l3.18,3.603
		c1.483,1.801,0.953,3.073,0.953,3.073s0.265,12.77,0.106,12.929s25.329,0,25.329,0S32.497,32.53,32.179,32.424
		c-0.317-0.106-1.483-2.755-1.483-2.755l0.424-5.087c0,0,2.983,0.346,7.776,0.903c1.267-1.197,3.07-1.639,4.305-1.803v-0.478h1.908
		c0,0,29.333,3.788,49.266,6.24V12c0-6.6-5.399-12-12-12H12c-6.6,0-12,5.4-12,12v27.519L7.274,32.317z"/>
</g>
</svg>
