<?xml version="1.0" encoding="utf-8"?>
<!-- Generator: Adobe Illustrator 16.0.0, SVG Export Plug-In . SVG Version: 6.00 Build 0)  -->
<!DOCTYPE svg PUBLIC "-//W3C//DTD SVG 1.1//EN" "http://www.w3.org/Graphics/SVG/1.1/DTD/svg11.dtd">
<svg version="1.1" id="Layer_1" xmlns="http://www.w3.org/2000/svg" xmlns:xlink="http://www.w3.org/1999/xlink" x="0px" y="0px"
	 width="94.375px" height="94.375px" viewBox="0 0 94.375 94.375" enable-background="new 0 0 94.375 94.375" xml:space="preserve">
<rect x="28.939" y="40.178" fill="#034B70" width="2.127" height="6.769"/>
<g>
	<defs>
		<rect id="SVGID_1_" width="94.375" height="94.375"/>
	</defs>
	<clipPath id="SVGID_2_">
		<use xlink:href="#SVGID_1_"  overflow="visible"/>
	</clipPath>
	<path clip-path="url(#SVGID_2_)" fill="#034B70" d="M64.815,36.02c0,0-20.511,7.526-23.824,8.658
		c5.134-1.549,53.319-15.427,53.319-15.427v-8.123l-23.209,6.866l-1.161-0.871L33.387,38.05l-0.773,1.644v6.382l1.353-1.934
		l2.128-0.29l1.644-0.87l42.55-14.312v2.127L64.815,36.02z"/>
	<path clip-path="url(#SVGID_2_)" fill="#034B70" d="M0.508,23.738h5.415v-5.222h2.611v5.609h2.128v2.804H8.631v17.02h1.354v1.741
		h7.349l3.482-3.022V13.487h8.026c0,0,3.481,22.339,3.772,22.436c0.29,0.096,36.94-10.638,37.327-10.734
		c0.388-0.097,2.516-2.031,2.998-2.128c0.484-0.097,16.054-3.868,16.054-3.868l5.383-2.007V12c0-6.6-5.4-12-12-12H12
		C5.4,0,0,5.4,0,12v11.738H0.508z"/>
	<path clip-path="url(#SVGID_2_)" fill="#034B70" d="M40.992,44.677c-0.303,0.092-0.465,0.142-0.449,0.142
		C40.565,44.819,40.723,44.769,40.992,44.677"/>
	<path clip-path="url(#SVGID_2_)" fill="#034B70" d="M91.796,53.522l1.547-3.577v-1.258h-1.257l-4.642,7.833
		C87.734,56.811,91.796,53.522,91.796,53.522"/>
	<path clip-path="url(#SVGID_2_)" fill="#034B70" d="M94.375,33.215h-2.289l-7.059,2.128l-5.319,4.835c0,0-0.418,0.109-1.028,0.267
		l0.448,1.957l1.257-0.29l3.331,16.738c3.132-4.293,9.2-13.015,10.659-15.114V33.215z"/>
	<path clip-path="url(#SVGID_2_)" fill="#034B70" d="M89.766,75.752c0-3.327,1.867-6.216,4.609-7.683V66.48H92.86h-2.225
		l-1.354,2.901l-7.156,5.319H50.714c-1.354,5.597-6.382,9.759-12.395,9.759c-7.05,0-12.765-5.715-12.765-12.766
		c0-7.05,5.715-12.765,12.765-12.765c3.8,0,7.203,1.671,9.541,4.306c1.342-1.005,2.745-1.977,3.224-1.977h10.589
		c-0.06-4.112-0.069-14.001,0.049-14.118c0.145-0.145,14.409,0,14.409,0v14.118h3.733l-3.347-17.794l1.934-0.676
		c0,0-0.207-1.087-0.421-2.176c-1.832,0.472-4.476,1.143-4.221,1.015c0.387-0.193-15.763,1.741-15.763,1.741l-24.176,6.769
		c0,0-5.512,10.831-5.512,11.218c0,0.388-7.543,0-7.543,0v-5.957c-1.046,0.051-2.127,0.151-2.127,0.151h-8.8v0.971H8.631v18.181
		h2.03v2.805h-2.32v4.931H6.021v-5.607H0.217v4.932L0,81.952v0.423c0,6.6,5.4,12,12,12h70.375c6.251,0,11.417-4.847,11.947-10.966
		C91.608,81.934,89.766,79.058,89.766,75.752"/>
	<polygon clip-path="url(#SVGID_2_)" fill="#034B70" points="6.02,74.701 6.02,26.059 0.218,26.059 0.218,30.894 0,31.112 0,69.348 
		0.411,69.769 0.411,74.701 	"/>
	<polygon clip-path="url(#SVGID_2_)" fill="#034B70" points="28.939,56.521 31.066,51.976 28.939,51.976 	"/>
	<path clip-path="url(#SVGID_2_)" fill="#034B70" d="M12.886,49.944c0,0-0.484,3.868,2.756,3.868l5.174-0.635v-6.102h-3.868
		C16.948,47.076,13.176,47.237,12.886,49.944"/>
	<polygon clip-path="url(#SVGID_2_)" fill="#034B70" points="28.939,24.705 28.939,35.052 31.066,35.052 	"/>
</g>
</svg>
