<?xml version="1.0" encoding="utf-8"?>
<!-- Generator: Adobe Illustrator 16.0.0, SVG Export Plug-In . SVG Version: 6.00 Build 0)  -->
<!DOCTYPE svg PUBLIC "-//W3C//DTD SVG 1.1//EN" "http://www.w3.org/Graphics/SVG/1.1/DTD/svg11.dtd">
<svg version="1.1" id="Layer_1" xmlns="http://www.w3.org/2000/svg" xmlns:xlink="http://www.w3.org/1999/xlink" x="0px" y="0px"
	 width="94.375px" height="94.375px" viewBox="0 0 94.375 94.375" enable-background="new 0 0 94.375 94.375" xml:space="preserve">
<g>
	<defs>
		<rect id="SVGID_1_" width="94.375" height="94.375"/>
	</defs>
	<clipPath id="SVGID_2_">
		<use xlink:href="#SVGID_1_"  overflow="visible"/>
	</clipPath>
	<path clip-path="url(#SVGID_2_)" fill="#034B70" d="M21.859,58.403c0.617-0.412,14.717,0.515,14.717,0.515s1.354-1.039,1.234-1.75
		c-0.103-0.618-0.309-8.851-0.309-8.851h-16.98C20.727,49.14,21.242,58.815,21.859,58.403"/>
	<path clip-path="url(#SVGID_2_)" fill="#034B70" d="M32.226,21.947c0.155,0.615,0.44,3.317,0.44,3.317l-1.338,1.133
		c0,0-0.31,10.497-0.412,10.909c-0.104,0.411,5.763-0.206,5.763-0.206l-0.308-4.117c-2.367-0.103-3.088-2.058-3.088-2.058
		c0.205-3.191,4.836-3.191,4.836-3.191c4.221-0.308,4.324,2.779,4.324,2.779c0.103,2.161-2.574,2.573-2.986,2.676
		c-0.411,0.103,0.31,3.808,0.31,3.808s23.671,0.926,23.979,0.823s-0.309,31.596-0.309,31.596s16.569,2.675,16.878,2.366
		c0.31-0.309,2.882,2.367,2.882,2.367l3.91-0.309c0,0,0.824-3.293,0.618-3.705s1.132,0.103,1.132,0.103l0.721,3.19l-0.206,9.469
		l0.927,2.675c0,0-6.896-0.204-7.204-0.308c-0.309-0.103,0.308-2.882,0.205-3.191c-0.103-0.309-20.171-5.969-20.48-6.277
		c-0.309-0.309-0.412,6.072-0.412,6.072l-41.681-1.749L20.623,83c-0.307,4.322-6.379,3.603-6.379,3.603
		c-5.765-0.206-5.765-5.352-5.765-5.352c0.206-5.661,6.999-5.353,6.999-5.353l1.338-6.277c-6.175-2.573-1.133-7.821-1.234-8.131
		c-0.104-0.309-2.573-16.055-2.573-16.055l-4.733-3.499c0,0-0.722-5.455-0.516-5.866c0.206-0.412,0-4.014,0-4.014l1.646-1.853V27.22
		l4.528-6.072l4.632-4.529l5.043-1.543c2.778-0.309,7.924,2.161,7.924,2.161l62.842,21.61V12c0-6.6-5.4-12-12-12H12
		C5.4,0,0,5.4,0,12v70.375c0,6.6,5.4,12,12,12h70.375c6.6,0,12-5.4,12-12V42.463C73.895,35.953,34.144,23.23,32.226,21.947"/>
	<path clip-path="url(#SVGID_2_)" fill="#034B70" d="M27.623,27.425c0,0-11.424,3.19-11.938,3.19s-2.985,1.544-3.397,1.544
		c-0.41,0,0,5.558,0,6.175c0,0.618,6.484,0,6.484,0l1.956-0.823h6.071C26.799,37.511,27.416,28.249,27.623,27.425"/>
	<path clip-path="url(#SVGID_2_)" fill="#034B70" d="M57.571,58.814V48.626l-17.187-0.411c0.205,0.823,0.514,8.953,0.514,8.953
		s1.133,1.234,1.133,1.646H57.571z"/>
	<path clip-path="url(#SVGID_2_)" fill="#034B70" d="M22.631,20.221c-0.463,0.412-3.756,2.124-3.756,2.124l-1.234,2.199
		c0.514,0,9.981-3.294,9.981-3.294S23.094,19.809,22.631,20.221"/>
	<path clip-path="url(#SVGID_2_)" fill="#034B70" d="M82.477,75.796l-10.958-1.218c1.442,0.314,10.86,4.467,10.958,3.585
		C82.58,77.237,82.477,75.796,82.477,75.796"/>
</g>
</svg>
