<?xml version="1.0" encoding="utf-8"?>
<!-- Generator: Adobe Illustrator 16.0.0, SVG Export Plug-In . SVG Version: 6.00 Build 0)  -->
<!DOCTYPE svg PUBLIC "-//W3C//DTD SVG 1.1//EN" "http://www.w3.org/Graphics/SVG/1.1/DTD/svg11.dtd">
<svg version="1.1" id="Layer_1" xmlns="http://www.w3.org/2000/svg" xmlns:xlink="http://www.w3.org/1999/xlink" x="0px" y="0px"
	 width="71.661px" height="69.347px" viewBox="0 0 71.661 69.347" enable-background="new 0 0 71.661 69.347" xml:space="preserve">
<g>
	<defs>
		<rect id="SVGID_1_" y="0" width="71.661" height="69.347"/>
	</defs>
	<clipPath id="SVGID_2_">
		<use xlink:href="#SVGID_1_"  overflow="visible"/>
	</clipPath>
	<path clip-path="url(#SVGID_2_)" d="M35.832,12.557c5,0,9.124,4.126,9.124,9.119c0,5.012-4.111,9.123-9.124,9.123
		c-5.001,0-9.119-4.119-9.119-9.123C26.712,16.667,30.824,12.557,35.832,12.557 M16.024,30.462
		c-1.199-2.688-1.869-5.663-1.869-8.786c0-5.98,2.429-11.405,6.353-15.328C24.428,2.43,29.848,0,35.832,0
		c5.988,0,11.404,2.43,15.327,6.348c3.924,3.923,6.354,9.348,6.354,15.328c0,3.123-0.67,6.098-1.87,8.786h7.552
		c0.878,0,1.6,0.663,1.697,1.513l6.74,35.349c0.177,0.921-0.436,1.815-1.355,1.991c-0.105,0.02-0.208,0.027-0.313,0.027v0.005H1.705
		C0.764,69.348,0,68.582,0,67.643c0-0.161,0.02-0.311,0.06-0.451L6.8,31.858c0.153-0.82,0.874-1.388,1.674-1.388L16.024,30.462z
		 M17.93,33.875h-8.05L3.767,65.934h64.138l-6.112-32.059h-8.059L53.35,34.42c-2.496,3.425-5.981,6.099-10.025,7.59l-5.235,6.831
		c-0.952,1.246-2.731,1.485-3.978,0.533c-0.207-0.157-0.383-0.337-0.537-0.537l-5.227-6.827c-4.048-1.491-7.533-4.161-10.033-7.59
		L17.93,33.875z M47.138,10.373c-2.893-2.895-6.894-4.687-11.306-4.687c-4.413,0-8.411,1.792-11.302,4.687
		c-2.893,2.889-4.688,6.89-4.688,11.303c0,3.53,1.137,6.787,3.05,9.414c1.963,2.691,4.761,4.749,8.01,5.807
		c0.549,0.161,1.058,0.498,1.431,0.986l3.499,4.57l3.503-4.57v0.004c0.345-0.445,0.815-0.795,1.388-0.979
		c3.264-1.05,6.082-3.115,8.049-5.819c1.917-2.631,3.05-5.887,3.05-9.414C51.821,17.263,50.025,13.262,47.138,10.373 M35.832,15.97
		c-3.151,0-5.706,2.555-5.706,5.706c0,3.135,2.578,5.709,5.706,5.709c3.151,0,5.71-2.558,5.71-5.709
		C41.542,18.552,38.967,15.97,35.832,15.97"/>
</g>
</svg>
