<?xml version="1.0" encoding="utf-8"?>
<!-- Generator: Adobe Illustrator 16.0.0, SVG Export Plug-In . SVG Version: 6.00 Build 0)  -->
<!DOCTYPE svg PUBLIC "-//W3C//DTD SVG 1.1//EN" "http://www.w3.org/Graphics/SVG/1.1/DTD/svg11.dtd">
<svg version="1.1" id="Layer_1" xmlns="http://www.w3.org/2000/svg" xmlns:xlink="http://www.w3.org/1999/xlink" x="0px" y="0px"
	 width="80.148px" height="69.202px" viewBox="0 0 80.148 69.202" enable-background="new 0 0 80.148 69.202" xml:space="preserve">
<g>
	<defs>
		<rect id="SVGID_1_" y="0" width="80.149" height="69.202"/>
	</defs>
	<clipPath id="SVGID_2_">
		<use xlink:href="#SVGID_1_"  overflow="visible"/>
	</clipPath>
	<path clip-path="url(#SVGID_2_)" d="M56.492,28.327c2.558,1.023,5.107,2.066,7.68,3.05c0.405,0.155,0.913,0.049,1.375,0.05
		c2.64,0.003,5.278-0.016,7.918,0.009c2.879,0.027,4.398,1.574,4.415,4.452c0.011,2.01,0.025,4.021,0.004,6.032
		c-0.031,2.822-1.565,4.354-4.387,4.377c-2.607,0.021-5.216,0.019-7.823,0.002c-2.697-0.017-4.265-1.601-4.271-4.276
		c-0.002-0.88-0.075-1.767,0.013-2.638c0.095-0.924-0.214-1.341-1.106-1.692c-7.053-2.775-14.079-5.619-21.113-8.444
		c-1.885-0.757-2.296-1.723-1.552-3.616c0.161-0.409,0.392-0.8,0.484-1.222c0.437-1.997,1.864-2.384,3.649-2.499
		c5.23-0.337,10.452-0.778,15.751-1.332c-0.249-0.119-0.493-0.252-0.749-0.355c-4.648-1.87-9.299-3.74-13.954-5.594
		c-0.368-0.146-0.782-0.223-1.178-0.239c-1.67-0.064-2.913-0.842-3.559-2.345c-0.338-0.787-0.725-0.994-1.609-0.7
		c0,0.787,0.007,1.624-0.001,2.46c-0.026,2.694-1.673,4.331-4.359,4.334c-2.796,0.003-5.593,0.009-8.389-0.002
		c-2.355-0.009-4.082-1.616-4.126-3.982c-0.062-3.392-0.057-6.787-0.001-10.179c0.039-2.328,1.706-3.928,4.038-3.955
		C26.53-0.011,29.421,0,32.313,0.015c2.458,0.014,4.126,1.674,4.165,4.135c0.021,1.35,0.004,2.699,0.004,4.104
		c0.855,0.126,1.554,0.285,2.227-0.594c1.243-1.624,3.634-1.839,5.357-0.705c0.671,0.443,1.383,0.854,2.126,1.154
		c9.267,3.735,18.538,7.46,27.822,11.153c1.337,0.532,2.175,1.292,2.132,2.83c-0.021,0.686,0.129,1.375,0.154,2.064
		c0.059,1.605-0.688,2.48-2.284,2.619c-1.908,0.167-3.82,0.27-5.729,0.419c-3.933,0.306-7.866,0.625-11.799,0.939
		C56.489,28.198,56.491,28.263,56.492,28.327 M45.551,23.686c-0.013,0.078-0.024,0.155-0.037,0.233
		c1.214,0.484,2.494,0.849,3.628,1.478c1.925,1.069,3.922,1.014,6.004,0.829c4.621-0.41,9.25-0.737,13.875-1.104
		c1.737-0.138,3.473-0.291,5.295-0.444c-0.092-1.108-0.176-2.119-0.267-3.213C64.456,22.213,55.003,22.95,45.551,23.686
		 M39.255,27.09c7.431,2.981,14.731,5.91,22.055,8.849c0.087-0.617,0.104-1.124,0.241-1.598c0.144-0.498,0.401-0.964,0.652-1.542
		c-7.239-2.904-14.47-5.805-21.754-8.727C40.028,25.137,39.665,26.058,39.255,27.09 M69.374,19.799
		c0.015-0.059,0.029-0.119,0.044-0.178c-7.826-3.142-15.653-6.284-23.366-9.381c-0.417,1.079-0.781,2.023-1.156,2.992
		c0.002,0.001,0.074,0.067,0.159,0.101c5.656,2.276,11.314,4.55,16.976,6.819c0.2,0.08,0.426,0.16,0.634,0.145
		C64.901,20.142,67.138,19.968,69.374,19.799 M21.624,5.197h12.762c0.186-2.113-0.395-3.133-1.923-3.163
		c-2.951-0.058-5.904-0.046-8.855,0.003c-1.249,0.02-1.934,0.81-1.982,2.056C21.611,4.436,21.624,4.78,21.624,5.197 M31.694,7.453
		h-1.033v8.599h1.033V7.453z M27.537,16.027h1.044V7.43h-1.044V16.027z M24.496,16.039h1.042V7.437h-1.042V16.039z M22.249,15.685
		c0.077-0.042,0.153-0.084,0.229-0.126V7.45h-0.846c0,2.329-0.033,4.608,0.028,6.885C21.671,14.79,22.043,15.235,22.249,15.685
		 M65.541,43.795c0.811-0.022,1.486-0.724,1.468-1.522c-0.019-0.785-0.744-1.502-1.52-1.501c-0.845,0.002-1.508,0.717-1.478,1.595
		C64.04,43.197,64.705,43.819,65.541,43.795 M73.946,34.164c-0.848,0.004-1.458,0.619-1.465,1.478
		c-0.007,0.833,0.628,1.515,1.434,1.542c0.808,0.024,1.555-0.732,1.538-1.561C75.438,34.795,74.782,34.16,73.946,34.164
		 M65.441,34.16c-0.839,0.022-1.446,0.669-1.43,1.522c0.016,0.835,0.678,1.504,1.483,1.501c0.813-0.003,1.558-0.792,1.514-1.602
		C66.965,34.775,66.262,34.137,65.441,34.16 M73.973,43.795c0.821-0.008,1.477-0.668,1.48-1.492c0.004-0.798-0.681-1.511-1.47-1.53
		c-0.838-0.021-1.531,0.696-1.509,1.562C72.495,43.178,73.139,43.805,73.973,43.795 M34.5,7.503c-0.773-0.26-0.837,0.08-0.834,0.566
		c0.012,2.318,0.004,4.636,0.008,6.954c0.001,0.159,0.046,0.319,0.07,0.479c0.099-0.001,0.198-0.002,0.298-0.003
		C34.923,12.893,34.169,10.174,34.5,7.503"/>
	<path clip-path="url(#SVGID_2_)" d="M29.161,37.141c2.052,0.126,2.569,0.671,2.57,2.576c0.003,3.329,0.003,6.658,0.005,9.987
		c0.001,1.873-0.537,2.449-2.575,2.605c0,0.973,0.006,1.961-0.001,2.95c-0.01,1.473-0.793,2.257-2.263,2.278
		c-0.157,0.003-0.315-0.012-0.471,0.003c-1.851,0.158-3.23-0.201-4.652-1.82c-3.461-3.938-9.855-3.222-12.895,1.15
		c-0.351,0.505-0.688,0.696-1.291,0.682c-1.632-0.041-3.265-0.006-4.898-0.017c-1.459-0.01-2.422-0.81-2.637-2.166
		c-0.25-1.579,0.388-2.723,1.741-3.27c0.259-0.104,0.518-0.448,0.592-0.729c0.283-1.076,0.245-2.1-0.253-3.18
		c-0.291-0.633-0.244-1.553-0.045-2.259c0.704-2.498,1.528-4.963,2.327-7.434c1.024-3.171,2.112-3.957,5.397-3.948
		c0.471,0.001,0.944-0.025,1.412,0.012c0.656,0.051,1.137-0.043,1.548-0.698c0.225-0.357,0.901-0.598,1.376-0.602
		c4.427-0.045,8.856-0.036,13.284-0.019c1.098,0.004,1.707,0.669,1.727,1.791C29.171,35.721,29.161,36.407,29.161,37.141
		 M11.725,36.784c0-0.001,0-0.002,0-0.004c-1.003,0-2.007-0.012-3.011,0.004c-0.902,0.014-1.64,0.458-1.936,1.259
		c-0.714,1.933-1.34,3.9-1.923,5.879C4.606,44.764,5.042,45.3,5.89,45.318c1.504,0.03,3.011,0.019,4.516-0.01
		c0.692-0.014,1.199-0.334,1.326-1.081c0.131-0.771,0.658-1.101,1.37-1.198c0.527-0.07,1.06-0.108,1.591-0.159
		c1-0.096,1.63-0.71,1.659-1.687c0.028-0.939,0.027-1.882-0.001-2.822c-0.028-0.968-0.622-1.545-1.615-1.571
		C13.733,36.763,12.729,36.784,11.725,36.784 M22.973,39.844c0.002,0,0.004,0,0.005,0c0-0.282,0.001-0.564,0-0.847
		c-0.001-1.781-0.436-2.221-2.203-2.223c-0.282-0.001-0.565-0.011-0.846,0.009c-0.922,0.063-1.493,0.632-1.52,1.569
		c-0.027,0.94-0.028,1.882,0.003,2.822c0.029,0.868,0.513,1.382,1.367,1.532c2.48,0.433,3.19-0.164,3.194-2.675
		C22.973,39.969,22.973,39.908,22.973,39.844"/>
	<path clip-path="url(#SVGID_2_)" d="M56.934,47.765c6.092,0,12.185,0.003,18.276-0.002c2.14-0.002,3.084,0.884,3.054,3.007
		c-0.013,0.808,0.114,1.364,0.887,1.844c0.964,0.598,1.224,2.036,0.805,3.247c-0.364,1.053-1.231,1.669-2.461,1.675
		c-3.078,0.013-6.155,0.017-9.232-0.017c-0.305-0.004-0.713-0.221-0.895-0.468c-3.803-5.185-10.535-5.181-14.301,0.009
		c-0.18,0.248-0.595,0.458-0.902,0.459c-4.679,0.028-9.357,0.03-14.037,0.013c-1.421-0.006-2.46-0.988-2.509-2.405
		c-0.058-1.631-0.056-3.267-0.008-4.897c0.044-1.497,1.164-2.462,2.763-2.462C44.561,47.762,50.746,47.765,56.934,47.765"/>
	<path clip-path="url(#SVGID_2_)" d="M8.731,61.658c-0.321-2.051,1.793-2.826,2.292-4.416c0.29-0.924,2.101-2.02,3.031-1.964
		c0.921,0.058,1.874-0.036,2.779-0.226c0.809-0.169,2.87,0.725,3.267,1.445c0.35,0.636,0.774,1.425,1.368,1.686
		c0.847,0.372,1.064,0.997,1.28,1.701c0.224,0.731,0.45,1.415-0.063,2.225c-0.33,0.521-0.319,1.339-0.263,2.007
		c0.107,1.272-0.914,2.833-2.107,3.234c-0.696,0.234-1.378,0.618-1.954,1.076c-1.126,0.896-2.643,1.02-3.856,0.349
		c-0.723-0.399-1.551-0.641-2.359-0.844c-0.767-0.192-2.233-1.697-2.403-2.46c-0.213-0.952-0.561-1.873-0.83-2.813
		C8.821,62.333,8.791,61.991,8.731,61.658 M19.566,62.139c0.023-2.051-1.532-3.665-3.555-3.691c-2.131-0.027-3.81,1.588-3.809,3.664
		c0.001,1.972,1.651,3.643,3.64,3.686C17.881,65.841,19.543,64.209,19.566,62.139"/>
	<path clip-path="url(#SVGID_2_)" d="M52.987,61.65c-0.224-1.564,1.02-2.352,1.713-3.41c0.68-1.039,1.066-2.354,2.483-2.688
		c0.457-0.108,0.945-0.086,1.421-0.115c0.713-0.044,1.473,0.062,2.13-0.151c1.408-0.458,2.966,0.166,3.707,1.502
		c0.321,0.579,0.846,1.119,1.407,1.475c1.146,0.726,1.688,2.461,1.183,3.687c-0.273,0.663-0.354,1.467-0.302,2.191
		c0.088,1.243-0.941,2.794-2.15,3.21c-0.693,0.238-1.372,0.632-1.943,1.097c-1.071,0.869-2.621,0.989-3.861,0.32
		c-0.728-0.394-1.554-0.638-2.363-0.835c-0.817-0.2-2.225-1.749-2.376-2.574c-0.159-0.872-0.491-1.711-0.741-2.566
		C53.184,62.413,53.089,62.03,52.987,61.65 M63.866,62.104c0.002-2.071-1.605-3.664-3.699-3.662
		c-2.016,0.001-3.653,1.612-3.669,3.609c-0.016,2.03,1.64,3.729,3.662,3.757C62.171,65.834,63.864,64.143,63.866,62.104"/>
	<path clip-path="url(#SVGID_2_)" d="M24.405,62.925c-0.073-1.195-0.146-2.373-0.223-3.633h27.731
		c-0.076,1.192-0.152,2.37-0.234,3.633H24.405z"/>
	<path clip-path="url(#SVGID_2_)" d="M68.809,62.995c-0.104-1.284-0.201-2.485-0.307-3.787c2.359,0,4.767,0,7.173,0.001
		c0.22,0,0.438,0.004,0.658,0.006c1.7,0.016,2.586,1.447,1.755,2.958c-0.206,0.374-0.763,0.775-1.168,0.786
		C74.203,63.027,71.484,62.995,68.809,62.995"/>
	<path clip-path="url(#SVGID_2_)" d="M7.561,59.228c-0.09,1.299-0.172,2.479-0.26,3.756c-1.353,0-2.794,0.067-4.224-0.024
		c-0.935-0.061-1.307-0.843-1.238-2.188c0.047-0.928,0.488-1.505,1.32-1.531C4.628,59.194,6.101,59.228,7.561,59.228"/>
	<path clip-path="url(#SVGID_2_)" d="M18.807,62.13c-0.003,1.609-1.351,2.953-2.932,2.925c-1.598-0.03-2.915-1.378-2.911-2.98
		c0.003-1.607,1.338-2.91,2.962-2.89C17.584,59.205,18.81,60.458,18.807,62.13"/>
	<path clip-path="url(#SVGID_2_)" d="M63.099,62.082c0.006,1.621-1.294,2.958-2.89,2.973c-1.58,0.014-2.947-1.345-2.951-2.932
		c-0.003-1.629,1.277-2.925,2.912-2.945C61.799,59.157,63.093,60.44,63.099,62.082"/>
</g>
</svg>
