<?xml version="1.0" encoding="utf-8"?>
<!-- Generator: Adobe Illustrator 16.0.0, SVG Export Plug-In . SVG Version: 6.00 Build 0)  -->
<!DOCTYPE svg PUBLIC "-//W3C//DTD SVG 1.1//EN" "http://www.w3.org/Graphics/SVG/1.1/DTD/svg11.dtd">
<svg version="1.1" id="Layer_1" xmlns="http://www.w3.org/2000/svg" xmlns:xlink="http://www.w3.org/1999/xlink" x="0px" y="0px"
	 width="69.847px" height="69.54px" viewBox="0 0 69.847 69.54" enable-background="new 0 0 69.847 69.54" xml:space="preserve">
<g>
	<defs>
		<rect id="SVGID_1_" y="0" width="69.846" height="69.54"/>
	</defs>
	<clipPath id="SVGID_2_">
		<use xlink:href="#SVGID_1_"  overflow="visible"/>
	</clipPath>
	<path clip-path="url(#SVGID_2_)" d="M62.731,0.48l6.628,6.631c0.635,0.634,0.649,1.65,0.042,2.307L58.928,22.438
		c-0.577,0.702-1.624,0.818-2.334,0.244c-0.065-0.053-0.13-0.114-0.185-0.175l-2.577-2.575L39.606,34.156l9.16,9.16
		c0.648,0.65,0.648,1.704,0,2.354l-0.111,0.099l-5.389,5.387c-0.647,0.642-1.697,0.642-2.343,0l-0.03-0.03l-2.06-2.056L20.01,67.886
		h0.007l-0.004,0.008c-1.963,1.963-5.309,2.315-7.36,0.26l0.004-0.008L1.387,56.885c-2.062-2.071-1.703-5.386,0.268-7.365
		l18.821-18.817l-1.792-1.788c-0.645-0.649-0.645-1.696,0-2.345l0.031-0.031l5.462-5.455c0.645-0.649,1.696-0.649,2.341,0
		l0.008-0.007l9.16,9.16l14.226-14.233l-2.639-2.636c-0.643-0.641-0.643-1.696,0-2.337l0.133-0.123h-0.004L60.514,0.365
		c0.664-0.535,1.623-0.474,2.215,0.122L62.731,0.48z M21.614,38.816L8.294,52.133c-0.65,0.649-0.65,1.703,0,2.354
		c0.65,0.649,1.703,0.649,2.353,0L23.963,41.17c0.654-0.65,0.654-1.704,0-2.354C23.314,38.167,22.263,38.167,21.614,38.816
		 M28.375,45.579l-13.32,13.315c-0.649,0.649-0.649,1.704,0,2.354c0.649,0.648,1.704,0.648,2.353,0l13.32-13.316
		c0.649-0.648,0.649-1.704,0-2.353C30.08,44.929,29.025,44.929,28.375,45.579 M23.999,29.534l0.026,0.031l15.986,15.982l0.1,0.107
		l1.983,1.986l3.15-3.14L25.346,24.599l-3.148,3.14l1.704,1.704L23.999,29.534z M36.485,46.724l-13.664-13.66L4.008,51.874
		c-0.661,0.657-1.035,1.91-0.279,2.666l11.269,11.269l0.008-0.008v0.008c0.748,0.749,1.986,0.397,2.654-0.268l0.004-0.007
		l0.004,0.007L36.485,46.724z M65.952,8.41l-4.519-4.523l-10.509,8.45l6.573,6.578L65.952,8.41z"/>
	<path clip-path="url(#SVGID_2_)" d="M60.628,62.594c2.158-2.159,2.165-5.701,0.005-7.86c-2.152-2.152-5.706-2.146-7.859,0.007
		c-2.153,2.152-2.146,5.694,0.006,7.848C54.933,64.742,58.479,64.742,60.628,62.594 M55.206,57.172
		c0.837-0.837,2.164-0.837,2.995-0.006c0.83,0.831,0.83,2.17,0,3.001c-0.814,0.814-2.176,0.814-2.995-0.005
		C54.386,59.342,54.381,57.998,55.206,57.172"/>
	<path clip-path="url(#SVGID_2_)" d="M64.376,51.817L33.09,20.531c0.413-2.577,0.246-5.232-0.496-7.747
		c-0.798-2.728-2.276-5.311-4.412-7.447c-6.823-6.823-17.984-6.816-24.8,0C2.991,5.728,2.6,6.164,2.21,6.631L2.188,6.665
		L2.171,6.692C1.803,7.138,1.474,7.58,1.189,8.009c-0.53,0.786-0.318,1.857,0.463,2.382c0.296,0.195,0.63,0.295,0.96,0.29
		l11.049,0.005l2.042,3.525l2.036,3.531l-2.036,3.52l-2.036,3.531H2.612c-0.949,0-1.718,0.77-1.718,1.718
		c0,0.357,0.105,0.686,0.295,0.954v0.011l0.034,0.045c0.63,0.931,1.361,1.829,2.153,2.621c2.136,2.137,4.714,3.609,7.447,4.413
		c2.293,0.676,4.696,0.845,7.056,0.562l2.805-2.805l-0.329-0.329l-0.005,0.006c-0.396-0.396-0.982-0.592-1.574-0.469
		c-2.309,0.502-4.724,0.419-6.989-0.24c-1.952-0.58-3.82-1.601-5.439-3.051h8.312l-0.005-0.006c0.591,0.001,1.171-0.301,1.489-0.853
		l5.065-8.769c0.295-0.519,0.318-1.176,0-1.718l-2.538-4.39l-2.533-4.384c-0.301-0.513-0.848-0.859-1.483-0.859H6.354
		C11.905,2.248,20.45,2.469,25.75,7.77c1.734,1.735,2.922,3.804,3.564,5.985c0.653,2.226,0.747,4.596,0.273,6.878
		c-0.168,0.58-0.017,1.232,0.441,1.69L61.95,54.244c2.638,2.639,2.645,7.028,0,9.673c-2.639,2.638-7.029,2.633-9.667-0.006
		l-14.85-14.85l-2.427,2.427l14.85,14.85c3.972,3.971,10.554,3.972,14.52,0.005C68.348,62.372,68.348,55.789,64.376,51.817"/>
</g>
</svg>
