<?xml version="1.0" encoding="utf-8"?>
<!-- Generator: Adobe Illustrator 16.0.0, SVG Export Plug-In . SVG Version: 6.00 Build 0)  -->
<!DOCTYPE svg PUBLIC "-//W3C//DTD SVG 1.1//EN" "http://www.w3.org/Graphics/SVG/1.1/DTD/svg11.dtd">
<svg version="1.1" id="Layer_1" xmlns="http://www.w3.org/2000/svg" xmlns:xlink="http://www.w3.org/1999/xlink" x="0px" y="0px"
	 width="69.582px" height="69.583px" viewBox="0 0 69.582 69.583" enable-background="new 0 0 69.582 69.583" xml:space="preserve">
<g>
	<defs>
		<rect id="SVGID_1_" y="0" width="69.582" height="69.582"/>
	</defs>
	<clipPath id="SVGID_2_">
		<use xlink:href="#SVGID_1_"  overflow="visible"/>
	</clipPath>
	<path clip-path="url(#SVGID_2_)" d="M68.839,49.255L54.633,35.03l12.852-12.853c2.135-2.136,2.536-5.072,1.544-7.818
		c-1.544-3.833-8.371-9.191-11.44-12.242C54.86-0.61,50.342-0.686,47.539,1.965L34.534,14.951L20.328,0.744
		c-0.973-0.992-2.575-0.992-3.566,0L0.744,16.743c-0.991,0.991-0.991,2.593,0,3.584L14.97,34.553L0.763,48.76
		c-0.458,0.456-0.744,1.086-0.744,1.772C0.019,56.024,0,61.497,0,66.989c0,1.411,1.086,2.594,2.535,2.594h16.457
		c0.686,0,1.354-0.248,1.831-0.743l14.206-14.207l14.188,14.148l0.038,0.059c0.992,0.991,2.593,0.991,3.585,0l15.999-16.019
		C69.83,51.829,69.83,50.227,68.839,49.255 M51.065,5.588L51.065,5.588c0.82-0.744,2.155-0.687,2.938,0.094
		c3.299,3.299,6.616,6.598,9.896,9.897c0.82,0.821,0.82,2.231,0,3.033l-4.52,4.5l-2.86-2.861l-0.019-0.038l-0.096-0.076
		l-0.019-0.019l-6.998-6.998l-0.021-0.038l-0.018-0.02l-0.038-0.018l-2.842-2.861L51.065,5.588z M53.26,21.262L53.26,21.262
		C40.273,34.229,27.307,47.215,14.34,60.2l-4.938-4.938L48.32,16.323C49.961,17.964,51.619,19.622,53.26,21.262 M6.121,18.536
		L6.121,18.536L18.535,6.102l2.422,2.423l-4.424,4.423c-0.591,0.591-0.591,1.545,0,2.135c0.591,0.592,1.564,0.592,2.136,0
		l4.443-4.423l3.566,3.585l-2.231,2.25c-0.592,0.591-0.592,1.545,0,2.135c0.59,0.592,1.544,0.592,2.154,0l2.231-2.23l2.137,2.136
		L18.535,30.968L6.121,18.536z M44.335,12.338L44.335,12.338l1.831,1.849L7.247,53.107l-1.85-1.85L44.335,12.338z M5.073,64.51
		L5.073,64.51c0-3.108-0.019-6.197-0.019-9.307l9.305,9.307H5.073z M18.325,64.186L18.325,64.186l-1.868-1.851
		C29.442,49.35,42.429,36.384,55.415,23.398l1.829,1.85L18.325,64.186z M51.027,63.46L51.027,63.46L38.614,51.047l12.434-12.433
		l2.363,2.364l-2.23,2.25c-0.572,0.591-0.572,1.545,0,2.136c0.591,0.591,1.545,0.591,2.155,0l2.23-2.23l3.585,3.585l-4.425,4.424
		c-0.59,0.591-0.59,1.563,0,2.155c0.592,0.59,1.564,0.59,2.136,0l4.444-4.444l2.173,2.175L51.027,63.46z"/>
</g>
</svg>
