<?xml version="1.0" encoding="utf-8"?>
<!-- Generator: Adobe Illustrator 16.0.0, SVG Export Plug-In . SVG Version: 6.00 Build 0)  -->
<!DOCTYPE svg PUBLIC "-//W3C//DTD SVG 1.1//EN" "http://www.w3.org/Graphics/SVG/1.1/DTD/svg11.dtd">
<svg version="1.1" id="Layer_1" xmlns="http://www.w3.org/2000/svg" xmlns:xlink="http://www.w3.org/1999/xlink" x="0px" y="0px"
	 width="94.375px" height="94.375px" viewBox="0 0 94.375 94.375" enable-background="new 0 0 94.375 94.375" xml:space="preserve">
<polygon fill="#034B70" points="75.736,28.267 86.753,28.267 86.753,27.845 75.736,27.709 "/>
<g>
	<defs>
		<rect id="SVGID_1_" width="94.375" height="94.375"/>
	</defs>
	<clipPath id="SVGID_2_">
		<use xlink:href="#SVGID_1_"  overflow="visible"/>
	</clipPath>
	<path clip-path="url(#SVGID_2_)" fill="#034B70" d="M75.736,26.943h11.365c0-1.488,3.157-1.578,3.157-1.578
		c0.316-0.316,0.902-0.857,0.902-0.857v-5.367c0-0.812,0.541-1.263,0.541-1.263H75.736V26.943z"/>
	<path clip-path="url(#SVGID_2_)" fill="#034B70" d="M75.736,36.707h11.017v-7.746c0,0.068-11.017,0-11.017,0V36.707z"/>
	<polygon clip-path="url(#SVGID_2_)" fill="#034B70" points="75.736,40.64 83.164,40.64 84.157,39.867 86.753,39.867 86.753,37.473 
		75.736,37.473 	"/>
	<rect x="87.553" y="37.474" clip-path="url(#SVGID_2_)" fill="#034B70" width="3.089" height="2.393"/>
	<path clip-path="url(#SVGID_2_)" fill="#034B70" d="M94.375,32.307c-0.054,0.012-0.101,0.034-0.159,0.04
		c-0.055,0.005-0.11,0.008-0.169,0.008h-1.871v3.902h2.199V32.307z"/>
	<path clip-path="url(#SVGID_2_)" fill="#034B70" d="M94.093,31.633c0.02,0,0.136-0.067,0.282-0.167v-2.111h-2.199
		c0,0-0.057,2.334,0,2.278C92.232,31.577,94.024,31.633,94.093,31.633"/>
	<rect x="92.176" y="36.978" clip-path="url(#SVGID_2_)" fill="#034B70" width="2.199" height="2.889"/>
	<rect x="72.749" y="28.961" clip-path="url(#SVGID_2_)" fill="#034B70" width="2.087" height="7.786"/>
	<path clip-path="url(#SVGID_2_)" fill="#034B70" d="M55.867,27.646H45.753c0,0-1.105,0.421-1.285,1.065h12.673
		C56.949,28.711,56.814,27.646,55.867,27.646"/>
	<path clip-path="url(#SVGID_2_)" fill="#034B70" d="M71.836,37.474H60.223c0,0-0.069,2.067-0.053,3.167h11.666V37.474z"/>
	<rect x="44.288" y="29.356" clip-path="url(#SVGID_2_)" fill="#034B70" width="13.034" height="7.391"/>
	<rect x="43.16" y="29.468" clip-path="url(#SVGID_2_)" fill="#034B70" width="0.496" height="8.466"/>
	<path clip-path="url(#SVGID_2_)" fill="#034B70" d="M60.064,28.268c0,0.085,11.771,0,11.771,0v-0.744H60.064V28.268z"/>
	<path clip-path="url(#SVGID_2_)" fill="#034B70" d="M72.546,40.64h2.488c0-1.245,0.015-3.167,0.015-3.167h-2.503V40.64z"/>
	<rect x="72.546" y="27.524" clip-path="url(#SVGID_2_)" fill="#034B70" width="2.29" height="0.744"/>
	<rect x="92.151" y="26.78" clip-path="url(#SVGID_2_)" fill="#034B70" width="2.224" height="1.488"/>
	<path clip-path="url(#SVGID_2_)" fill="#034B70" d="M61.756,17.877c0,0-1.533,0.631-1.533,1.263v7.802h14.612
		c0,0-0.131-8.92-0.006-9.058C74.517,18.009,61.756,17.877,61.756,17.877"/>
	<path clip-path="url(#SVGID_2_)" fill="#034B70" d="M93.168,18.083c-0.879,0-1.104,0.742-1.104,0.742v5.171
		c0.135-0.286,2.21-0.301,2.21-0.301s-0.046-5.412,0-5.612H93.168z"/>
	<path clip-path="url(#SVGID_2_)" fill="#034B70" d="M42.066,38.453h-0.609c-0.019,0.078-0.028,1.224-0.025,2.187h0.634V38.453z"/>
	<path clip-path="url(#SVGID_2_)" fill="#034B70" d="M43.859,28.711c0.203-1.759,1.962-1.925,1.962-1.925h9.809
		c1.422,0,2.301,1.925,2.301,1.925v-9.133c-0.034-0.71-1.657-1.353-1.657-1.353s-10.182,0.136-11.298,0
		c-1.116-0.135-1.815,1.489-1.815,1.489s0.022,8.929,0,8.875L43.859,28.711z"/>
	<path clip-path="url(#SVGID_2_)" fill="#034B70" d="M58.661,23.414v4.938c0,0.305,0.626-0.879,0.828-0.828v-0.22v-2.841h-0.415
		v-1.049C59.074,23.313,58.661,23.414,58.661,23.414"/>
	<path clip-path="url(#SVGID_2_)" fill="#034B70" d="M58.813,36.369c0,0.237,0.678,0,0.678,0v-7.78l-0.678,0.372V36.369z"/>
	<path clip-path="url(#SVGID_2_)" fill="#034B70" d="M8.884,24.118v-5.171c0,0-0.226-0.742-1.105-0.742H6.674
		c0.045,0.201,0,5.613,0,5.613S8.749,23.833,8.884,24.118"/>
	<path clip-path="url(#SVGID_2_)" fill="#034B70" d="M40.725,27.065v-7.802c0-0.632-1.533-1.263-1.533-1.263
		s-12.761,0.13-13.074,0.007c0.126,0.138-0.005,9.058-0.005,9.058H40.725z"/>
	<path clip-path="url(#SVGID_2_)" fill="#034B70" d="M59.489,38.331h-0.608v2.31h0.633C59.518,39.655,59.51,38.412,59.489,38.331"/>
	<path clip-path="url(#SVGID_2_)" fill="#034B70" d="M28.401,37.596h-2.503c0,0,0.014,1.799,0.015,3.044h2.488V37.596z"/>
	<path clip-path="url(#SVGID_2_)" fill="#034B70" d="M89.831,28.268v-0.423h-2.278c0,0,0.046,0.423,0,0.423H89.831z"/>
	<rect x="44.287" y="37.596" clip-path="url(#SVGID_2_)" fill="#034B70" width="12.854" height="3.044"/>
	<path clip-path="url(#SVGID_2_)" fill="#034B70" d="M89.831,26.221c-2.098-0.101-2.098,1.136-2.098,1.136h2.098V26.221z"/>
	<path clip-path="url(#SVGID_2_)" fill="#034B70" d="M65.395,65.445l-4.645,2.661c0.496-0.18,9.29-1.714,9.29-1.714L65.395,65.445z"
		/>
	<path clip-path="url(#SVGID_2_)" fill="#034B70" d="M87.553,31.972c0.057-0.237,2.278-0.337,2.278-0.337v-2.673h-2.278
		C87.553,28.961,87.497,32.208,87.553,31.972"/>
	<path clip-path="url(#SVGID_2_)" fill="#034B70" d="M87.327,36.369h2.774v-3.924c-0.745-0.101-2.774,0-2.774,0V36.369z"/>
	<polygon clip-path="url(#SVGID_2_)" fill="#034B70" points="92.063,25.68 94.375,25.68 94.375,24.513 92.521,24.513 92.063,24.97 	
		"/>
	<path clip-path="url(#SVGID_2_)" fill="#034B70" d="M44.874,77.532c-0.18,0.09-9.787,5.457-10.012,5.729
		c0,0,12.897,2.751,13.079,2.751c0.18,0,23.723-5.029,23.723-5.029l-22.957-4.262C48.707,76.721,45.054,77.442,44.874,77.532"/>
	<path clip-path="url(#SVGID_2_)" fill="#034B70" d="M94.375,53.449h-7.603v0.991c0,0-11.354,2.271-11.727,2.346
		c0.451-0.091,7.126,5.683,7.126,5.683s2.548,0.677,2.751,0.677s2.368-0.405,2.368-0.405l1.015,5.411l-2.232,0.406l-0.135,1.015
		l-2.368-0.339l-21.107,4.668l22.866,4.466c0,0,2.165-0.678,2.165-0.475s1.015,4.533,0.812,4.533s-15.153,3.315-15.086,3.518
		c0.067,0.203-0.067,0.203,0,0.203s2.277,0.226,2.277,0.226l6.495,5.321h0.856v0.587l0.632,0.542c0,0,1.353,0.18,1.487,0.27
		c0.136,0.09,2.571,0,2.571,0l0.028,0.079c4.015-1.946,6.808-6.055,6.808-10.796V53.449z"/>
	<path clip-path="url(#SVGID_2_)" fill="#034B70" d="M71.836,36.707v-7.746c0,0-11.439,0.175-11.613,0
		c-0.175-0.175,0.09,7.656,0,7.746C60.132,36.797,71.836,36.707,71.836,36.707"/>
	<path clip-path="url(#SVGID_2_)" fill="#034B70" d="M5.096,19.668v4.357c0,0,0.767,0.208,0.767,0s0.315-5.394,0-5.394
		C5.546,18.632,5.096,18.767,5.096,19.668"/>
	<polygon clip-path="url(#SVGID_2_)" fill="#034B70" points="4.69,25.802 8.884,25.802 8.884,25.092 8.428,24.635 4.69,24.635 	"/>
	<rect x="5.822" y="26.902" clip-path="url(#SVGID_2_)" fill="#034B70" width="2.974" height="1.488"/>
	<path clip-path="url(#SVGID_2_)" fill="#034B70" d="M0,23.234v2.568h3.923c0,0,0.18-1.082,0-1.082c-0.18,0-2.571-0.271-2.571-0.271
		S0.483,23.995,0,23.234"/>
	<path clip-path="url(#SVGID_2_)" fill="#034B70" d="M0.585,18.226v4.194c0.09,0.993,1.308,1.398,1.308,1.398h2.39v-4.239
		c0-0.947,0.812-1.353,0.812-1.353S0.721,18.181,0.585,18.226"/>
	<path clip-path="url(#SVGID_2_)" fill="#034B70" d="M4.69,36.378h4.082v-3.901H6.9c-0.058,0-0.114-0.003-0.168-0.009
		c-1.169-0.122-1.478-1.502-1.478-1.502V29.59H4.69V36.378z"/>
	<path clip-path="url(#SVGID_2_)" fill="#034B70" d="M4.69,37.1v2.779c1.421-0.006,2.793-0.01,4.082-0.011V37.1H4.69z"/>
	<path clip-path="url(#SVGID_2_)" fill="#034B70" d="M0,37.1v2.801c1.301-0.007,2.594-0.014,3.855-0.019V37.1H0z"/>
	<path clip-path="url(#SVGID_2_)" fill="#034B70" d="M5.705,30.617c0,0.44,1.082,1.138,1.15,1.138s1.86-0.056,1.917,0
		c0.056,0.057,0-2.277,0-2.277H5.705V30.617z"/>
	<rect x="4.69" y="26.569" clip-path="url(#SVGID_2_)" fill="#034B70" width="0.541" height="1.821"/>
	<path clip-path="url(#SVGID_2_)" fill="#034B70" d="M60.93,93.498l-11.365-2.165c0,0-8.702,1.683-15.78,3.042h25.728
		C60.378,93.84,60.93,93.498,60.93,93.498"/>
	<path clip-path="url(#SVGID_2_)" fill="#034B70" d="M6.9,16.647c0,0,0.902-0.09,1.533,0.812h30.894c0,0,1.353,0.18,2.165,1.668
		v3.203h0.812v-2.616c0,0,0.451-2.255,2.48-2.255h11.817c0,0,1.984,0.496,1.984,2.165v2.751c0,0,0.901,0.135,0.901,0v-2.887
		c0,0,0.723-2.39,2.48-2.3h30.849c0,0,0.22-0.601,1.56-0.737V12c0-6.6-5.4-12-12-12H12C5.4,0,0,5.4,0,12v4.647H6.9z"/>
	<path clip-path="url(#SVGID_2_)" fill="#034B70" d="M9.052,93.991l13.858-2.838l-9.2-6.856l-2.887-0.18l-0.27-0.451l-1.624,0.09
		l-0.721-4.781l25.436-5.141l-19.934-4.33l-2.616,0.542l-1.443-1.804l-0.902,0.18l-0.993-4.689l24.355-4.961l-22.19-4.421v-0.632
		H6.404v-2.796H3.292v-0.856H0v32.309C0,87.957,3.868,92.666,9.052,93.991"/>
	<path clip-path="url(#SVGID_2_)" fill="#034B70" d="M24.983,81.672c-0.072-0.003-0.121,0-0.134,0.01S24.886,81.687,24.983,81.672"
		/>
	<path clip-path="url(#SVGID_2_)" fill="#034B70" d="M54.21,63.055c0.271,0-5.142-1.052-5.142-1.052s-4.059,0.917-4.194,1.052H54.21
		z"/>
	<polygon clip-path="url(#SVGID_2_)" fill="#034B70" points="56.735,53.584 38.74,53.584 47.738,55.794 	"/>
	<path clip-path="url(#SVGID_2_)" fill="#034B70" d="M31.028,82.674c0.226-0.316,5.502-3.383,5.502-3.383s-10.25,2.183-11.547,2.381
		C25.887,81.708,31.028,82.674,31.028,82.674"/>
	<path clip-path="url(#SVGID_2_)" fill="#034B70" d="M47.738,70.993l4.803-1.037l8.523-5.412c0,0-2.818-0.52-2.931-0.632
		c-0.113-0.112-14.072,0-14.072,0v-0.857c0-0.225-16.687,3.473-16.912,3.608L47.738,70.993z"/>
	<path clip-path="url(#SVGID_2_)" fill="#034B70" d="M14.195,37.596v2.285c2.259,0.019,3.664,0.059,3.664,0.128v0.631h7.352v-3.044
		H14.195z"/>
	<rect x="26.111" y="29.083" clip-path="url(#SVGID_2_)" fill="#034B70" width="2.087" height="7.786"/>
	<path clip-path="url(#SVGID_2_)" fill="#034B70" d="M29.111,28.39c0,0,11.771,0.085,11.771,0v-0.744H29.111V28.39z"/>
	<rect x="26.111" y="27.646" clip-path="url(#SVGID_2_)" fill="#034B70" width="2.29" height="0.744"/>
	<rect y="26.569" clip-path="url(#SVGID_2_)" fill="#034B70" width="4.103" height="2.12"/>
	<path clip-path="url(#SVGID_2_)" fill="#034B70" d="M41.458,36.491c0,0,0.677,0.237,0.677,0v-7.408l-0.677-0.372V36.491z"/>
	<path clip-path="url(#SVGID_2_)" fill="#034B70" d="M11.117,26.343v1.136h2.097C13.213,27.479,13.213,26.242,11.117,26.343"/>
	<path clip-path="url(#SVGID_2_)" fill="#034B70" d="M40.725,29.083c-0.175,0.175-11.613,0-11.613,0v7.746c0,0,11.703,0.09,11.613,0
		C40.635,36.739,40.9,28.908,40.725,29.083"/>
	<path clip-path="url(#SVGID_2_)" fill="#034B70" d="M40.725,37.596H29.112v3.044h11.667C40.789,39.517,40.725,37.596,40.725,37.596
		"/>
	<path clip-path="url(#SVGID_2_)" fill="#034B70" d="M11.117,28.39h2.278c-0.046,0,0-0.423,0-0.423h-2.278V28.39z"/>
	<path clip-path="url(#SVGID_2_)" fill="#034B70" d="M9.786,19.263v5.367c0,0,0.586,0.541,0.902,0.857c0,0,3.157,0.09,3.157,1.578
		H25.21V18H9.245C9.245,18,9.786,18.451,9.786,19.263"/>
	<polygon clip-path="url(#SVGID_2_)" fill="#034B70" points="25.21,27.832 14.194,27.967 14.194,28.39 25.21,28.39 	"/>
	<path clip-path="url(#SVGID_2_)" fill="#034B70" d="M13.394,39.876v-2.28h-3.089v2.271C11.431,39.868,12.468,39.871,13.394,39.876"
		/>
	<path clip-path="url(#SVGID_2_)" fill="#034B70" d="M11.117,31.756c0,0,2.221,0.1,2.278,0.337c0.056,0.237,0-3.01,0-3.01h-2.278
		V31.756z"/>
	<path clip-path="url(#SVGID_2_)" fill="#034B70" d="M4.003,29.365c0,0-1.742,0.003-4.003,0.005v7.008h4.003V29.365z"/>
	<path clip-path="url(#SVGID_2_)" fill="#034B70" d="M10.846,36.491h2.774v-3.924c0,0-2.03-0.101-2.774,0V36.491z"/>
	<path clip-path="url(#SVGID_2_)" fill="#034B70" d="M14.195,36.829H25.21v-7.746c0,0-11.016,0.068-11.016,0V36.829z"/>
	<path clip-path="url(#SVGID_2_)" fill="#034B70" d="M41.872,23.536v1.049h-0.414v2.841v0.22c0.203-0.051,0.828,1.133,0.828,0.828
		v-4.938C42.286,23.536,41.872,23.434,41.872,23.536"/>
</g>
</svg>
