<?xml version="1.0" encoding="utf-8"?>
<!-- Generator: Adobe Illustrator 16.0.0, SVG Export Plug-In . SVG Version: 6.00 Build 0)  -->
<!DOCTYPE svg PUBLIC "-//W3C//DTD SVG 1.1//EN" "http://www.w3.org/Graphics/SVG/1.1/DTD/svg11.dtd">
<svg version="1.1" id="Layer_1" xmlns="http://www.w3.org/2000/svg" xmlns:xlink="http://www.w3.org/1999/xlink" x="0px" y="0px"
	 width="94.375px" height="94.375px" viewBox="0 0 94.375 94.375" enable-background="new 0 0 94.375 94.375" xml:space="preserve">
<g>
	<defs>
		<rect id="SVGID_1_" width="94.375" height="94.375"/>
	</defs>
	<clipPath id="SVGID_2_">
		<use xlink:href="#SVGID_1_"  overflow="visible"/>
	</clipPath>
	<path clip-path="url(#SVGID_2_)" fill="#034B70" d="M11.145,25.453c0.516,0.516,2.638,3.097,2.638,3.441v11.585l-0.573,0.689
		c0.573-0.23,2.982-0.689,2.982-0.689V21.897c0,0,5.735-4.015,6.309-4.359c0.573-0.344,6.882-3.097,6.882-3.097l64.992-2.458
		C94.365,5.391,88.97,0,82.376,0H12C5.4,0,0,5.4,0,12v13.355C4.029,25.236,10.784,25.092,11.145,25.453"/>
	<path clip-path="url(#SVGID_2_)" fill="#034B70" d="M11.374,26.677c-0.191,0.191-1.606-0.612-1.606-0.612H7.933v4.588h1.529
		l3.441,1.224v-1.224l-1.529-0.841C11.374,29.812,11.565,26.486,11.374,26.677"/>
	<path clip-path="url(#SVGID_2_)" fill="#034B70" d="M61.615,48.05l32.76,8.19V35.325c-19.535,4.311-40.461,8.985-40.216,9.169
		C54.618,44.838,61.615,48.05,61.615,48.05"/>
	<path clip-path="url(#SVGID_2_)" fill="#034B70" d="M65.4,90.95c0,0-4.016-1.606-4.016-4.932c0-3.327,3.289-3.519,3.289-3.519
		l15.752,0.535c0,0-2.6-1.223-3.363-2.676l-17.206-3.136H54.81c0,0-2.294,0.306-3.136,2.753l-4.707,14.398h35.408
		c3.247,0,6.199-1.311,8.365-3.425H65.4z"/>
	<rect y="34.018" clip-path="url(#SVGID_2_)" fill="#034B70" width="6.403" height="7.953"/>
	<path clip-path="url(#SVGID_2_)" fill="#034B70" d="M47.544,81.353l0.766-5.429l0.306-2.753l6.882-2.906c0,0,4.054-0.229,4.282,0
		c0.23,0.229,2.371,2.982,2.601,2.982s-0.307,1.605-0.307,1.605l11.318,1.836l3.747,1.146l1.07-2.447l-0.688-1.069h-9.559
		c0,0,0.688-2.294,0.917-2.294h11.777c0,0,1.032,1.261,1.261,1.604c0.23,0.345,3.786,0,3.786,0V71.45h-1.491v-3.785l10.163-1.318
		v-0.712l-17.046-3.247L73.43,59.75l-2.982,0.688l-33.494-8.373c0,0-5.277-0.23-5.277-5.163c0,0-2.523-4.244,2.18-5.448
		l-0.803-2.581l6.538-2.524c0,0-0.688-2.294,1.491-3.097c0,0,1.95-0.918,3.9,1.835l49.393-10.584v-1.77l-6.837,0.425l-3.44-1.491
		l-54.256,2.065l-2.179-0.345l-3.327-0.114l-2.523,0.229l-0.803,2.409l-1.147,18.009l-4.244,1.261c0,0-2.18,2.295-2.409,2.295
		c-0.23,0-8.374-0.345-8.374-0.345L0,46.793v35.582c0,6.6,5.4,12,12,12h30.967L47.544,81.353z"/>
	<rect y="26.677" clip-path="url(#SVGID_2_)" fill="#034B70" width="6.403" height="6.271"/>
</g>
</svg>
