<?xml version="1.0" encoding="utf-8"?>
<!-- Generator: Adobe Illustrator 16.0.0, SVG Export Plug-In . SVG Version: 6.00 Build 0)  -->
<!DOCTYPE svg PUBLIC "-//W3C//DTD SVG 1.1//EN" "http://www.w3.org/Graphics/SVG/1.1/DTD/svg11.dtd">
<svg version="1.1" id="Layer_1" xmlns="http://www.w3.org/2000/svg" xmlns:xlink="http://www.w3.org/1999/xlink" x="0px" y="0px"
	 width="94.375px" height="94.375px" viewBox="0 0 94.375 94.375" enable-background="new 0 0 94.375 94.375" xml:space="preserve">
<polygon fill="#034B70" points="23.076,89.075 23.505,89.115 23.243,88.953 "/>
<polygon fill="#034B70" points="29.438,94.375 31.961,94.375 29.438,92.806 "/>
<polygon fill="#034B70" points="15.891,94.375 27.181,94.375 27.181,91.401 25.733,90.501 21.667,90.114 "/>
<polygon fill="#034B70" points="26.833,89.434 27.181,89.466 27.181,86.047 24.531,88.001 "/>
<polygon fill="#034B70" points="23.315,87.245 27.18,84.395 27.18,83.849 16.809,83.199 "/>
<polygon fill="#034B70" points="66.141,78.961 83.266,79.926 83.863,79.43 83.863,74.472 66.141,74.299 "/>
<polygon fill="#034B70" points="78.088,85.992 83.863,86.317 83.863,81.198 "/>
<polygon fill="#034B70" points="76.769,87.088 71.545,91.425 83.863,92.625 83.863,87.487 "/>
<g>
	<defs>
		<rect id="SVGID_1_" width="94.375" height="94.375"/>
	</defs>
	<clipPath id="SVGID_2_">
		<use xlink:href="#SVGID_1_"  overflow="visible"/>
	</clipPath>
	<path clip-path="url(#SVGID_2_)" fill="#034B70" d="M67.991,94.375h14.384c0.505,0,0.999-0.042,1.488-0.103v-0.474l-13.584-1.324
		L67.991,94.375z"/>
	<polygon clip-path="url(#SVGID_2_)" fill="#034B70" points="66.141,92.072 66.141,94.144 68.373,92.289 	"/>
	<polygon clip-path="url(#SVGID_2_)" fill="#034B70" points="66.141,57.309 66.141,61.23 83.863,60.608 83.863,55.613 
		67.667,56.182 	"/>
	<polygon clip-path="url(#SVGID_2_)" fill="#034B70" points="22.026,88.196 13.676,83.003 12.504,82.929 12.504,88.066 
		21.091,88.886 	"/>
	<polygon clip-path="url(#SVGID_2_)" fill="#034B70" points="29.438,27.468 63.882,30.038 63.882,27.273 29.438,24.541 	"/>
	<polygon clip-path="url(#SVGID_2_)" fill="#034B70" points="27.181,61.839 12.504,62.468 12.504,68.432 27.181,67.775 	"/>
	<polygon clip-path="url(#SVGID_2_)" fill="#034B70" points="66.141,86.489 66.141,90.898 69.639,91.239 74.774,86.975 	"/>
	<polygon clip-path="url(#SVGID_2_)" fill="#034B70" points="29.438,91.054 34.778,94.375 63.882,94.375 63.882,58.974 
		29.438,84.382 	"/>
	<polygon clip-path="url(#SVGID_2_)" fill="#034B70" points="66.141,80.131 66.141,85.318 76.094,85.88 81.946,81.021 	"/>
	<polygon clip-path="url(#SVGID_2_)" fill="#034B70" points="27.181,68.944 12.504,69.601 12.504,74.941 27.181,74.941 	"/>
	<polygon clip-path="url(#SVGID_2_)" fill="#034B70" points="66.141,73.131 83.863,73.303 83.863,68.259 66.141,68.06 	"/>
	<polygon clip-path="url(#SVGID_2_)" fill="#034B70" points="63.883,36.241 29.438,34.031 29.438,39.833 63.883,41.643 	"/>
	<polygon clip-path="url(#SVGID_2_)" fill="#034B70" points="14.144,81.541 27.18,82.357 27.18,76.428 12.504,76.428 12.504,80.521 
			"/>
	<path clip-path="url(#SVGID_2_)" fill="#034B70" d="M83.863,21.591v-0.755c-0.579,0.141-1.354,0.33-2.258,0.55
		C82.372,21.455,83.169,21.528,83.863,21.591"/>
	<path clip-path="url(#SVGID_2_)" fill="#034B70" d="M83.863,42.705v-8.373c-3.87,0.624-14.264,2.298-17.723,2.846v4.584
		l11.833,0.622L83.863,42.705z"/>
	<path clip-path="url(#SVGID_2_)" fill="#034B70" d="M66.141,30.207l17.723,1.323v-8.238l-7.074-0.736
		c-4.46,1.081-9.321,2.252-10.648,2.541V30.207z"/>
	<polygon clip-path="url(#SVGID_2_)" fill="#034B70" points="66.141,62.399 66.141,66.892 83.863,67.091 83.863,61.777 	"/>
	<path clip-path="url(#SVGID_2_)" fill="#034B70" d="M29.438,22.806l34.444,2.903V23.41h2.259v0.727
		c1.559-0.388,4.531-1.125,7.637-1.894l-44.339-4.611V22.806z"/>
	<path clip-path="url(#SVGID_2_)" fill="#034B70" d="M82.375,0H12C5.4,0,0,5.4,0,12v70.375c0,6.003,4.472,10.999,10.247,11.856
		V18.946h2.257v0.221c3.08-1.127,11.599-4.324,14.677-5.48v-0.776h2.257v3.06c6.051,0.655,45.587,4.801,48.939,5.134
		c2.521-0.623,4.63-1.144,5.486-1.355v-1.3h2.258v61.636l0.007,0.001l-0.007,0.132v13.545c4.779-1.584,8.254-6.097,8.254-11.389V12
		C94.375,5.4,88.975,0,82.375,0"/>
	<polygon clip-path="url(#SVGID_2_)" fill="#034B70" points="27.181,49.605 24.69,49.539 12.504,49.604 12.504,54.823 
		27.181,52.951 	"/>
	<path clip-path="url(#SVGID_2_)" fill="#034B70" d="M12.504,21.564c2.636,0.244,11.845,0.874,14.676,1.066V15.3l-14.676,5.291
		V21.564z"/>
	<polygon clip-path="url(#SVGID_2_)" fill="#034B70" points="13.65,94.375 19.683,89.925 12.504,89.24 12.504,94.375 	"/>
	<path clip-path="url(#SVGID_2_)" fill="#034B70" d="M29.438,32.64c13.066,0.807,29.5,1.783,34.444,2.075v-3.404
		c-13.624-1.029-29.66-2.261-34.444-2.718V32.64z"/>
	<path clip-path="url(#SVGID_2_)" fill="#034B70" d="M27.181,32.5v-2.578l-6.701,2.156C22.485,32.206,24.755,32.349,27.181,32.5"/>
	<path clip-path="url(#SVGID_2_)" fill="#034B70" d="M66.141,35.833l17.723-2.718v-0.31c-2.628-0.195-9.576-0.711-17.723-1.325
		V35.833z"/>
	<polygon clip-path="url(#SVGID_2_)" fill="#034B70" points="66.141,50.511 66.141,55.066 83.863,54.444 83.863,49.065 	"/>
	<path clip-path="url(#SVGID_2_)" fill="#034B70" d="M27.181,33.885l-10.273-0.659l-4.403,1.416v8.682
		c3.218-0.627,10.854-2.219,14.676-3.019V33.885z"/>
	<polygon clip-path="url(#SVGID_2_)" fill="#034B70" points="63.883,57.32 63.883,50.572 29.438,49.665 29.438,82.729 	"/>
	<path clip-path="url(#SVGID_2_)" fill="#034B70" d="M12.504,31.528c0.509,0.045,1.39,0.11,2.578,0.192
		c4.043-1.066,9.937-2.545,12.098-3.085v-4.283l-14.676-1.32V31.528z"/>
	<polygon clip-path="url(#SVGID_2_)" fill="#034B70" points="12.504,61.298 27.18,60.67 27.18,54.129 12.504,56.001 	"/>
</g>
</svg>
