<?xml version="1.0" encoding="utf-8"?>
<!-- Generator: Adobe Illustrator 16.0.0, SVG Export Plug-In . SVG Version: 6.00 Build 0)  -->
<!DOCTYPE svg PUBLIC "-//W3C//DTD SVG 1.1//EN" "http://www.w3.org/Graphics/SVG/1.1/DTD/svg11.dtd">
<svg version="1.1" id="Layer_1" xmlns="http://www.w3.org/2000/svg" xmlns:xlink="http://www.w3.org/1999/xlink" x="0px" y="0px"
	 width="94.375px" height="94.375px" viewBox="0 0 94.375 94.375" enable-background="new 0 0 94.375 94.375" xml:space="preserve">
<g>
	<defs>
		<rect id="SVGID_1_" width="94.375" height="94.375"/>
	</defs>
	<clipPath id="SVGID_2_">
		<use xlink:href="#SVGID_1_"  overflow="visible"/>
	</clipPath>
	<path clip-path="url(#SVGID_2_)" fill="#034B70" d="M13.193,30.007c1.901,0.173,2.766-1.037,2.766-1.037l1.382-3.457l3.111-14.692
		l5.013,9.68l0.691,6.049l5.186-0.864l10.37-5.358c4.84-3.457,7.605,0,7.605,0l18.84,24.198l2.075,0.691l20.396,25.927l3.747,1.998
		V12c0-6.6-5.4-12-12-12H12C5.399,0,0,5.4,0,12v16.541L13.193,30.007z"/>
	<path clip-path="url(#SVGID_2_)" fill="#034B70" d="M92.518,88.746c-5.129-6.864-9.783-13.051-9.783-13.051l1.153-0.748
		L66.43,53.514l-3.054,1.037l-2.305-3.802l2.305-3.515c0,0-16.248-19.243-16.593-19.358c-0.346-0.115-6.338,1.959-6.338,1.959
		l-5.531,1.152l-3.802,3.687l-1.844-0.691c0,0-2.074,0.23-2.42,0.23c-0.346,0-0.922,1.729-0.922,1.729l-1.843-0.346l-1.844,2.65
		c0,0-16.485-2.388-22.239-3.127v47.256c0,6.6,5.4,12,12,12h70.375C86.637,94.375,90.388,92.117,92.518,88.746"/>
	<path clip-path="url(#SVGID_2_)" fill="#034B70" d="M0,33.602c5.781,0.856,18.286,2.712,18.552,2.801
		c0.346,0.115-0.922-4.149-0.922-4.149L0,29.838V33.602z"/>
</g>
</svg>
